<?xml version="1.0" encoding="UTF-8"?><svg id="Layer_2" xmlns="http://www.w3.org/2000/svg" xmlns:xlink="http://www.w3.org/1999/xlink" viewBox="0 0 81.69 81.69"><defs><style>.cls-1{fill:#fff;}.cls-2{fill:url(#linear-gradient);}</style><linearGradient id="linear-gradient" x1="28.39" y1="42.32" x2="50.98" y2="42.32" gradientUnits="userSpaceOnUse"><stop offset="0" stop-color="#10054d"/><stop offset="0" stop-color="#12054e"/><stop offset=".79" stop-color="#45108a"/></linearGradient></defs><g id="Layer_9"><circle class="cls-2" cx="39.69" cy="42.32" r="11.3"/><path class="cls-1" d="M73.14,24.64c-.69.33-.98,1.16-.65,1.84,2.27,4.74,4.71,12.19,3.42,20.74-2.36,15.59-16.59,31.7-36.34,31.7h-.04c-21.36-.03-36.52-19.41-36.76-36.78-.18-12.75,7.64-21.75,10.04-24.2,10.26-10.49,26.97-13.9,42.56-8.68.72.24,1.51-.15,1.75-.87.24-.72-.15-1.51-.87-1.75C39.66,1.09,21.83,4.76,10.83,16.01,8.24,18.66-.19,28.37,0,42.18c.26,18.66,16.56,39.48,39.52,39.51h.05c21.24,0,36.54-17.31,39.08-34.05,1.4-9.25-1.22-17.26-3.66-22.35-.33-.69-1.16-.98-1.85-.65Z"/><path class="cls-1" d="M50.4,20.27c.3-.7-.03-1.52-.73-1.81-9.75-4.15-20.89-2-28.37,5.48-4.86,4.86-7.54,11.33-7.54,18.23,0,6.89,2.68,13.37,7.54,18.23s11.63,7.54,18.23,7.54,13.2-2.51,18.23-7.54c7.48-7.48,9.63-18.61,5.48-28.37-.3-.7-1.11-1.03-1.81-.73-.7.3-1.03,1.11-.73,1.81,3.71,8.71,1.79,18.65-4.89,25.33-4.34,4.34-10.12,6.73-16.27,6.73s-11.93-2.39-16.27-6.73c-4.34-4.34-6.73-10.12-6.73-16.28,0-6.15,2.39-11.93,6.73-16.27,6.68-6.68,16.62-8.59,25.33-4.89.7.3,1.51-.03,1.81-.73Z"/><path class="cls-1" d="M42.69,31.71c.74.22,1.5-.19,1.72-.93.22-.73-.19-1.5-.93-1.72-4.85-1.46-10.07-.15-13.65,3.42-5.34,5.34-5.34,14.03,0,19.37,2.58,2.58,6.02,4,9.68,4h0c3.66,0,7.1-1.42,9.68-4.01,3.57-3.57,4.88-8.8,3.42-13.64-.22-.73-.99-1.15-1.72-.93-.73.22-1.15.99-.93,1.72,1.17,3.87.12,8.04-2.73,10.89-4.26,4.26-11.2,4.26-15.46,0-4.26-4.26-4.26-11.2,0-15.46,2.85-2.85,7.02-3.9,10.89-2.73Z"/><path class="cls-1" d="M81.66,11.52c-.11-.47-.46-.84-.91-.99l-7.2-2.38-2.38-7.2c-.15-.46-.53-.8-.99-.91-.47-.11-.96.03-1.3.37l-10.09,10.09c-.37.37-.5.92-.33,1.41l2.33,7.05-3.83,3.83s0,0,0,0l-18.4,18.4,1.96,1.96,18.4-18.4s0,0,0,0l3.83-3.83,7.05,2.33c.14.05.29.07.43.07.36,0,.71-.14.98-.41l10.09-10.09c.34-.34.48-.83.37-1.3ZM61.35,11.85l7.9-7.9,1.63,4.92-7.9,7.9-1.63-4.92ZM69.85,20.35l-4.92-1.63,7.9-7.9,4.92,1.63-7.9,7.9Z"/></g></svg>