<?xml version="1.0" encoding="UTF-8"?><svg id="Layer_2" xmlns="http://www.w3.org/2000/svg" viewBox="0 0 83.29 55.53"><defs><style>.cls-1{fill:#fff;}.cls-2{fill:none;}.cls-3{fill:#76dfff;}</style></defs><g id="Layer_9"><path class="cls-2" d="M41.64,41.26c-13.79,0-25-1.32-25-15.1S26.94,6.83,40.72,6.83s25.92,5.55,25.92,19.33c0,4.1-.99,8.08-2.9,11.67l2.59,1.93c7-5.43,11.98-11.48,13.63-13.59-3.25-4.16-19.36-23.5-38.33-23.5S6.56,22,3.32,26.16c3.25,4.16,19.36,23.5,38.33,23.5,5.56,0,10.87-1.67,15.69-4.12l-3.94-2.93c-4.44,3.62-5.94-1.34-11.75-1.34Z"/><path class="cls-2" d="M56.75,26.16c0-8.33-6.78-15.1-15.1-15.1s-15.1,6.78-15.1,15.1,6.78,15.1,15.1,15.1,15.1-6.78,15.1-15.1Z"/><path class="cls-1" d="M82.72,26.94l.56-.78-.56-.78c-.75-1.04-18.57-25.38-41.08-25.38S1.31,24.34.56,25.38l-.56.78.56.78c.75,1.04,18.57,25.38,41.08,25.38,6.53,0,12.66-2.06,18.1-4.99l-2.41-1.79c-4.82,2.45-10.13,4.12-15.69,4.12C22.68,49.66,6.56,30.32,3.32,26.16,6.56,22,22.66,2.67,41.64,2.67s35.08,19.33,38.33,23.5c-1.65,2.12-6.64,8.16-13.63,13.59l2.27,1.69c8.37-6.63,13.72-13.94,14.12-14.5Z"/><path class="cls-1" d="M77.85,52.04l-18.41-13.71c2.36-3.43,3.75-7.57,3.75-12.04,0-11.73-9.55-21.28-21.28-21.28s-21.28,9.55-21.28,21.28,9.55,21.28,21.28,21.28c5.88,0,11.2-2.39,15.06-6.26l18.58,13.83c.35.26.75.38,1.15.38.59,0,1.17-.27,1.55-.78.64-.86.46-2.07-.4-2.71ZM41.91,43.8c-9.65,0-17.51-7.85-17.51-17.51s7.85-17.51,17.51-17.51,17.51,7.85,17.51,17.51-7.85,17.51-17.51,17.51Z"/><circle class="cls-3" cx="41.91" cy="26.3" r="14.99"/></g></svg>