<?xml version="1.0" encoding="UTF-8"?><svg id="Layer_2" xmlns="http://www.w3.org/2000/svg" xmlns:xlink="http://www.w3.org/1999/xlink" viewBox="0 0 345.13 125.33"><defs><style>.cls-1{fill:#3d1ba4;font-family:Heebo-Medium, Heebo;font-size:20px;font-weight:500;}.cls-2{fill:url(#linear-gradient-2);}.cls-3,.cls-4{fill:#fff;}.cls-5{fill:url(#linear-gradient-3);}.cls-4{stroke:url(#linear-gradient);stroke-miterlimit:10;stroke-width:3px;}.cls-6{fill:#76dfff;}</style><linearGradient id="linear-gradient" x1="0" y1="62.67" x2="231" y2="62.67" gradientUnits="userSpaceOnUse"><stop offset="0" stop-color="#10054d"/><stop offset="0" stop-color="#12054e"/><stop offset=".71" stop-color="#3d065f"/><stop offset=".98" stop-color="#45108a"/></linearGradient><linearGradient id="linear-gradient-2" x1="206.03" y1="129.92" x2="328.8" y2="-9.43" gradientUnits="userSpaceOnUse"><stop offset=".28" stop-color="#450c81"/><stop offset=".31" stop-color="#471485"/><stop offset=".38" stop-color="#4f2b93"/><stop offset=".45" stop-color="#5c50a9"/><stop offset=".54" stop-color="#6e85c7"/><stop offset=".64" stop-color="#84c6ee"/><stop offset=".68" stop-color="#8ee3ff"/></linearGradient><linearGradient id="linear-gradient-3" x1="222.8" y1="62.67" x2="342.13" y2="62.67" xlink:href="#linear-gradient"/></defs><g id="Layer_8"><path class="cls-4" d="M17.5,28h212v69.33H17.5c-8.83,0-16-7.17-16-16v-37.33c0-8.83,7.17-16,16-16Z"/><text class="cls-1" transform="translate(54.47 70.1)"><tspan x="0" y="0">הדף מגיב אליו</tspan></text><path class="cls-2" d="M282.47,125.33h-62.67V0h62.67c34.61,0,62.67,28.06,62.67,62.67h0c0,34.61-28.06,62.67-62.67,62.67Z"/><path class="cls-5" d="M222.8,122.33V3h59.67c32.9,0,59.67,26.77,59.67,59.67s-26.77,59.67-59.67,59.67h-59.67Z"/><path class="cls-3" d="M263.67,100.34c-.33,0-.67-.08-.98-.26-.87-.49-1.24-1.54-.88-2.47l11.27-28.8h-19.12c-.79,0-1.51-.47-1.83-1.2-.32-.73-.18-1.57.36-2.16l36.52-39.81c.39-.43.93-.65,1.47-.65.4,0,.81.12,1.16.37.82.58,1.08,1.69.6,2.58l-15.58,29.04h17.3c.76,0,1.46.43,1.79,1.12.34.68.26,1.5-.21,2.1l-30.29,39.35c-.39.51-.98.78-1.59.78Z"/><polygon class="cls-6" points="263.67 98.34 293.96 58.98 273.32 58.98 290.48 27 253.96 66.8 276.01 66.8 263.67 98.34"/></g></svg>