<?xml version="1.0" encoding="UTF-8"?><svg id="Layer_2" xmlns="http://www.w3.org/2000/svg" xmlns:xlink="http://www.w3.org/1999/xlink" viewBox="0 0 80.2 80.2"><defs><style>.cls-1{fill:#fff;}.cls-2{fill:url(#linear-gradient);}</style><linearGradient id="linear-gradient" x1="2.77" y1="47.03" x2="77.44" y2="47.03" gradientUnits="userSpaceOnUse"><stop offset="0" stop-color="#10054d"/><stop offset="0" stop-color="#12054e"/><stop offset=".79" stop-color="#45108a"/></linearGradient></defs><g id="Layer_9"><path class="cls-2" d="M77.44,63.79c0,7.52-6.12,13.64-13.65,13.64H16.41c-7.52,0-13.65-6.12-13.65-13.64V16.62h74.67v47.17Z"/><path class="cls-1" d="M53.94,6.93h-27.67c-.76,0-1.38.62-1.38,1.38s.62,1.38,1.38,1.38h27.67c.76,0,1.38-.62,1.38-1.38s-.62-1.38-1.38-1.38Z"/><path class="cls-1" d="M80.2,15.24c0-8.4-6.83-15.24-15.24-15.24H15.24C6.83,0,0,6.83,0,15.24c0,.09,0,.18.02.26-.02.3-.02.61-.02.91v47.38c0,9.05,7.36,16.41,16.41,16.41h47.38c9.05,0,16.41-7.36,16.41-16.41V16.41c0-.31,0-.61-.02-.91.02-.08.02-.17.02-.26ZM16.41,2.77h47.38c6.65,0,12.2,4.78,13.4,11.09H3.01c1.2-6.31,6.75-11.09,13.4-11.09ZM77.44,63.79c0,7.52-6.12,13.64-13.65,13.64H16.41c-7.52,0-13.65-6.12-13.65-13.64V16.62h74.67v47.17Z"/><path class="cls-1" d="M11.64,67.57c2.48,0,4.5-2.02,4.5-4.5,0-.79-.22-1.51-.57-2.16l13.52-16.09c.73.5,1.61.8,2.56.8.65,0,1.26-.14,1.82-.39l11.78,10.61c-.35.64-.57,1.36-.57,2.14,0,2.48,2.02,4.5,4.5,4.5s4.5-2.02,4.5-4.5c0-.67-.15-1.29-.41-1.86l13.98-24.49c.21.03.42.06.64.06,2.48,0,4.5-2.02,4.5-4.5s-2.02-4.5-4.5-4.5-4.5,2.02-4.5,4.5c0,1.23.49,2.33,1.29,3.15l-13.49,23.64c-.61-.3-1.28-.49-2-.49-.65,0-1.26.14-1.82.39l-11.78-10.61c.35-.64.57-1.36.57-2.15,0-2.48-2.02-4.5-4.5-4.5s-4.5,2.02-4.5,4.5c0,.45.09.88.21,1.29l-13.9,16.54c-.56-.25-1.17-.39-1.81-.39-2.48,0-4.5,2.02-4.5,4.5s2.02,4.5,4.5,4.5ZM67.88,25.57c.9,0,1.63.73,1.63,1.63s-.73,1.63-1.63,1.63-1.63-.73-1.63-1.63.73-1.63,1.63-1.63ZM50.8,57.99c0,.9-.73,1.63-1.63,1.63s-1.63-.73-1.63-1.63.73-1.63,1.63-1.63,1.63.73,1.63,1.63ZM31.65,39.5c.9,0,1.63.73,1.63,1.63s-.73,1.63-1.63,1.63-1.63-.73-1.63-1.63.73-1.63,1.63-1.63ZM11.64,61.44c.25,0,.49.06.7.16.09.18.2.34.36.48.11.09.23.15.35.2.13.23.21.5.21.78,0,.9-.73,1.63-1.63,1.63s-1.63-.73-1.63-1.63.73-1.63,1.63-1.63Z"/></g></svg>