<?xml version="1.0" encoding="UTF-8"?><svg id="Layer_2" xmlns="http://www.w3.org/2000/svg" xmlns:xlink="http://www.w3.org/1999/xlink" viewBox="0 0 345.13 125.33"><defs><style>.cls-1{fill:#3d1ba4;font-family:Heebo-Medium, Heebo;font-size:20px;font-weight:500;}.cls-2{fill:url(#linear-gradient-2);}.cls-3,.cls-4{fill:#fff;}.cls-5{fill:url(#linear-gradient-3);}.cls-4{stroke:url(#linear-gradient);stroke-miterlimit:10;stroke-width:3px;}.cls-6{fill:#76dfff;}</style><linearGradient id="linear-gradient" x1="0" y1="62.67" x2="231" y2="62.67" gradientUnits="userSpaceOnUse"><stop offset="0" stop-color="#10054d"/><stop offset="0" stop-color="#12054e"/><stop offset=".71" stop-color="#3d065f"/><stop offset=".98" stop-color="#45108a"/></linearGradient><linearGradient id="linear-gradient-2" x1="206.03" y1="129.92" x2="328.8" y2="-9.43" gradientUnits="userSpaceOnUse"><stop offset=".28" stop-color="#450c81"/><stop offset=".31" stop-color="#471485"/><stop offset=".38" stop-color="#4f2b93"/><stop offset=".45" stop-color="#5c50a9"/><stop offset=".54" stop-color="#6e85c7"/><stop offset=".64" stop-color="#84c6ee"/><stop offset=".68" stop-color="#8ee3ff"/></linearGradient><linearGradient id="linear-gradient-3" x1="222.8" y1="62.67" x2="342.13" y2="62.67" xlink:href="#linear-gradient"/></defs><g id="Layer_8"><path class="cls-4" d="M17.5,28h212v69.33H17.5c-8.83,0-16-7.17-16-16v-37.33c0-8.83,7.17-16,16-16Z"/><text class="cls-1" transform="translate(49.08 70.1)"><tspan x="0" y="0">המשתמש פועל</tspan></text><path class="cls-2" d="M282.47,125.33h-62.67V0h62.67c34.61,0,62.67,28.06,62.67,62.67h0c0,34.61-28.06,62.67-62.67,62.67Z"/><path class="cls-5" d="M222.8,122.33V3h59.67c32.9,0,59.67,26.77,59.67,59.67s-26.77,59.67-59.67,59.67h-59.67Z"/><path class="cls-3" d="M273.37,88.65c-.31,0-.6-.15-.79-.4l-21.69-28.95c-.24-.32-.26-.76-.06-1.1l3.95-6.58c.17-.28.47-.46.8-.48.02,0,.03,0,.05,0,.31,0,.61.15.79.4l14.8,19.92,15.93-34.22c.16-.35.51-.57.89-.57h9.67c.34,0,.66.18.84.46.18.29.2.65.05.96l-24.34,50c-.15.31-.45.52-.79.55-.03,0-.06,0-.09,0Z"/><polygon class="cls-6" points="251.67 58.72 273.37 87.67 297.71 37.67 288.04 37.67 271.41 73.39 255.62 52.14 251.67 58.72"/><polygon class="cls-6" points="260.63 88.27 240.97 88.27 240.97 38.93 274.63 38.93 274.63 40.93 242.97 40.93 242.97 86.27 260.63 86.27 260.63 88.27"/></g></svg>