<?xml version="1.0" encoding="UTF-8"?><svg id="Layer_2" xmlns="http://www.w3.org/2000/svg" xmlns:xlink="http://www.w3.org/1999/xlink" viewBox="0 0 80.2 80.24"><defs><style>.cls-1{fill:#fff;}.cls-2{fill:url(#linear-gradient);}</style><linearGradient id="linear-gradient" x1="9.85" y1="39.82" x2="70.85" y2="39.82" gradientUnits="userSpaceOnUse"><stop offset="0" stop-color="#10054d"/><stop offset="0" stop-color="#12054e"/><stop offset=".79" stop-color="#45108a"/></linearGradient></defs><g id="Layer_9"><circle class="cls-2" cx="40.35" cy="39.82" r="30.5"/><path class="cls-1" d="M51.27,45.93c.35-.68.09-1.51-.59-1.87l-6.69-3.49c.02-.16.05-.31.05-.47,0-1.69-1.07-3.12-2.56-3.68v-11.28c0-.76-.62-1.38-1.38-1.38s-1.38.62-1.38,1.38v11.28c-1.49.56-2.56,1.99-2.56,3.68,0,2.17,1.77,3.94,3.94,3.94,1.01,0,1.92-.39,2.62-1.02l6.68,3.49c.2.11.42.16.64.16.5,0,.98-.27,1.23-.74Z"/><path class="cls-1" d="M40.1,0C17.99,0,0,17.99,0,40.1v25.13c0,8.26,6.72,14.97,14.97,14.97l52.1.04h.01c3.5,0,6.8-1.36,9.27-3.84,2.48-2.48,3.85-5.77,3.85-9.28v-27.02C80.2,17.99,62.21,0,40.1,0ZM77.44,67.12c0,2.77-1.08,5.37-3.04,7.33-1.96,1.95-4.55,3.03-7.32,3.03h0l-52.1-.04h0c-6.73,0-12.21-5.48-12.21-12.21v-25.13C2.77,19.51,19.51,2.77,40.1,2.77s37.34,16.75,37.34,37.34v27.02Z"/><path class="cls-1" d="M40.28,6.72C22.03,6.72,7.19,21.57,7.19,39.82s14.85,33.1,33.1,33.1,33.1-14.85,33.1-33.1S58.53,6.72,40.28,6.72ZM40.28,70.15c-16.72,0-30.33-13.61-30.33-30.33s13.61-30.33,30.33-30.33,30.33,13.61,30.33,30.33-13.61,30.33-30.33,30.33Z"/><path class="cls-1" d="M40.48,61.97c-.94,0-1.7.77-1.7,1.7s.75,1.7,1.68,1.7h.02c.93,0,1.7-.75,1.7-1.68s-.77-1.72-1.7-1.72Z"/><path class="cls-1" d="M51.52,59.05c-.82.48-1.09,1.51-.63,2.33.32.54.88.85,1.48.85.29,0,.58-.07.85-.22.82-.48,1.09-1.51.63-2.33-.48-.82-1.51-1.09-2.33-.63Z"/><path class="cls-1" d="M29.46,58.98c-.82-.48-1.85-.19-2.33.61-.48.82-.2,1.85.61,2.33.27.15.56.24.85.24.59,0,1.16-.31,1.48-.85.48-.82.19-1.85-.61-2.33Z"/><path class="cls-1" d="M61.96,50.39c-.82-.48-1.87-.2-2.33.61-.48.8-.2,1.85.61,2.31.27.17.56.24.85.24.58,0,1.16-.31,1.48-.83.46-.82.19-1.85-.61-2.33Z"/><path class="cls-1" d="M19.08,50.26c-.82.46-1.1,1.5-.63,2.31.31.56.88.85,1.48.85.29,0,.58-.07.83-.22.82-.46,1.1-1.5.63-2.31-.46-.82-1.5-1.11-2.31-.63Z"/><path class="cls-1" d="M62.63,39.94v.08c0,.93.75,1.7,1.7,1.7s1.7-.75,1.7-1.68v-.19c0-.93-.76-1.7-1.7-1.7s-1.7.77-1.7,1.7v.09Z"/><path class="cls-1" d="M16.79,38.13c-.95,0-1.72.77-1.72,1.7s.76,1.7,1.7,1.72c.93,0,1.7-.76,1.7-1.7s-.75-1.72-1.68-1.72Z"/><path class="cls-1" d="M60.3,26.53c-.82.48-1.09,1.51-.61,2.33.31.54.88.85,1.46.85.29,0,.58-.07.85-.22.82-.48,1.09-1.51.63-2.33-.48-.82-1.51-1.09-2.33-.63Z"/><path class="cls-1" d="M20.83,26.49c-.82-.46-1.85-.19-2.33.63-.48.82-.2,1.85.61,2.31.27.17.56.24.85.24.59,0,1.16-.31,1.48-.85.48-.82.19-1.85-.61-2.33Z"/><path class="cls-1" d="M53.31,17.83c-.82-.48-1.85-.19-2.33.63-.48.8-.19,1.84.61,2.31.27.15.56.24.85.24.6,0,1.17-.31,1.48-.85.48-.82.19-1.85-.61-2.33Z"/><path class="cls-1" d="M27.84,17.81c-.82.46-1.09,1.5-.63,2.31.32.54.88.85,1.48.85.29,0,.58-.07.85-.22.82-.48,1.09-1.51.61-2.33-.46-.82-1.5-1.09-2.31-.61Z"/><path class="cls-1" d="M40.56,17.82c.95,0,1.7-.77,1.72-1.7,0-.93-.76-1.7-1.7-1.7s-1.7.75-1.7,1.68c-.02.95.75,1.72,1.68,1.72Z"/></g></svg>