<?xml version="1.0" encoding="UTF-8"?><svg id="Layer_2" xmlns="http://www.w3.org/2000/svg" xmlns:xlink="http://www.w3.org/1999/xlink" viewBox="0 0 345.13 125.33"><defs><style>.cls-1{fill:#3d1ba4;font-family:Heebo-Medium, Heebo;font-size:20px;font-weight:500;}.cls-2{fill:url(#linear-gradient-2);}.cls-3,.cls-4{fill:#fff;}.cls-5{fill:url(#linear-gradient-4);}.cls-6{fill:url(#linear-gradient-3);}.cls-4{stroke:url(#linear-gradient);stroke-width:3px;}.cls-4,.cls-7{stroke-miterlimit:10;}.cls-8{fill:#76dfff;}.cls-7{fill:none;stroke:#fff;stroke-width:1.72px;}</style><linearGradient id="linear-gradient" x1="0" y1="62.67" x2="231" y2="62.67" gradientUnits="userSpaceOnUse"><stop offset="0" stop-color="#10054d"/><stop offset="0" stop-color="#12054e"/><stop offset=".71" stop-color="#3d065f"/><stop offset=".98" stop-color="#45108a"/></linearGradient><linearGradient id="linear-gradient-2" x1="206.03" y1="129.92" x2="328.8" y2="-9.43" gradientUnits="userSpaceOnUse"><stop offset=".28" stop-color="#450c81"/><stop offset=".31" stop-color="#471485"/><stop offset=".38" stop-color="#4f2b93"/><stop offset=".45" stop-color="#5c50a9"/><stop offset=".54" stop-color="#6e85c7"/><stop offset=".64" stop-color="#84c6ee"/><stop offset=".68" stop-color="#8ee3ff"/></linearGradient><linearGradient id="linear-gradient-3" x1="222.8" y1="62.67" x2="342.13" y2="62.67" xlink:href="#linear-gradient"/><linearGradient id="linear-gradient-4" x1="267.12" y1="62.67" x2="289.88" y2="62.67" gradientUnits="userSpaceOnUse"><stop offset="0" stop-color="#10054d"/><stop offset="0" stop-color="#12054e"/><stop offset=".79" stop-color="#45108a"/></linearGradient></defs><g id="Layer_8"><path class="cls-4" d="M17.5,28h212v69.33H17.5c-8.83,0-16-7.17-16-16v-37.33c0-8.83,7.17-16,16-16Z"/><text class="cls-1" transform="translate(41.15 70.1)"><tspan x="0" y="0">רואה תוכן רלוונטי</tspan></text><path class="cls-2" d="M282.47,125.33h-62.67V0h62.67c34.61,0,62.67,28.06,62.67,62.67h0c0,34.61-28.06,62.67-62.67,62.67Z"/><path class="cls-6" d="M222.8,122.33V3h59.67c32.9,0,59.67,26.77,59.67,59.67s-26.77,59.67-59.67,59.67h-59.67Z"/><path class="cls-3" d="M278.5,88.83c-22.51,0-40.33-24.34-41.08-25.38l-.56-.78.56-.78c.75-1.04,18.57-25.38,41.08-25.38s40.33,24.34,41.08,25.38l.56.78-.56.78c-.75,1.04-18.57,25.38-41.08,25.38ZM240.17,62.67c3.25,4.16,19.36,23.5,38.33,23.5s35.08-19.33,38.33-23.49c-3.25-4.16-19.36-23.5-38.33-23.5s-35.08,19.33-38.33,23.49Z"/><circle class="cls-8" cx="278.5" cy="62.67" r="18.97"/><circle class="cls-5" cx="278.5" cy="62.67" r="11.38"/><circle class="cls-7" cx="278.5" cy="62.67" r="18.97"/></g></svg>