<?xml version="1.0" encoding="UTF-8"?><svg id="Layer_2" xmlns="http://www.w3.org/2000/svg" xmlns:xlink="http://www.w3.org/1999/xlink" viewBox="0 0 456.51 96.51"><defs><style>.cls-1{fill:url(#linear-gradient-2);}.cls-2,.cls-3{fill:#fff;}.cls-4{fill:url(#linear-gradient-4);}.cls-5{fill:url(#linear-gradient-3);}.cls-3{stroke:url(#linear-gradient);stroke-width:3px;}.cls-3,.cls-6{stroke-miterlimit:10;}.cls-7{fill:#76dfff;}.cls-8{fill:#3d1ba4;}.cls-6{fill:none;stroke:#fff;stroke-width:1.72px;}</style><linearGradient id="linear-gradient" x1="0" y1="48.25" x2="385.2" y2="48.25" gradientUnits="userSpaceOnUse"><stop offset="0" stop-color="#10054d"/><stop offset="0" stop-color="#12054e"/><stop offset=".71" stop-color="#3d065f"/><stop offset=".98" stop-color="#45108a"/></linearGradient><linearGradient id="linear-gradient-2" x1="349.4" y1="100.04" x2="443.94" y2="-7.26" gradientUnits="userSpaceOnUse"><stop offset=".28" stop-color="#450c81"/><stop offset=".31" stop-color="#471485"/><stop offset=".38" stop-color="#4f2b93"/><stop offset=".45" stop-color="#5c50a9"/><stop offset=".54" stop-color="#6e85c7"/><stop offset=".64" stop-color="#84c6ee"/><stop offset=".68" stop-color="#8ee3ff"/></linearGradient><linearGradient id="linear-gradient-3" x1="362.31" y1="48.25" x2="454.2" y2="48.25" xlink:href="#linear-gradient"/><linearGradient id="linear-gradient-4" x1="396.44" y1="48.25" x2="413.96" y2="48.25" gradientUnits="userSpaceOnUse"><stop offset="0" stop-color="#10054d"/><stop offset="0" stop-color="#12054e"/><stop offset=".79" stop-color="#45108a"/></linearGradient></defs><g id="Layer_8"><path class="cls-3" d="M36.17,13.59h347.54v69.33H36.17c-19.13,0-34.67-15.53-34.67-34.67h0C1.5,29.12,17.03,13.59,36.17,13.59Z"/><path class="cls-8" d="M70.69,45.06h-3.53v-3.5h8v11.79h-4.46v-8.3Z"/><path class="cls-8" d="M85.1,61.77c-1.32-.73-2.35-1.75-3.08-3.07s-1.1-2.84-1.1-4.56v-12.59h4.46v13.03c0,.95.18,1.79.54,2.52s.86,1.3,1.5,1.7,1.39.6,2.23.6,1.61-.2,2.26-.6,1.15-.96,1.51-1.7.54-1.57.54-2.52v-6.47c0-1.01-.22-1.78-.68-2.32s-1.1-.81-1.94-.81c-.64,0-1.38.16-2.2.47l-.51-2.9c.6-.36,1.28-.66,2.03-.88s1.47-.33,2.13-.33c1.15,0,2.14.26,2.99.77s1.49,1.25,1.94,2.21.68,2.1.68,3.41v6.4c0,1.72-.36,3.24-1.09,4.56s-1.75,2.34-3.07,3.07-2.85,1.09-4.58,1.09-3.25-.36-4.57-1.09Z"/><path class="cls-8" d="M103.5,62.7c-.57-.07-1.21-.18-1.91-.33l.05-3.39c.8.13,1.65.19,2.57.19s1.54-.25,1.97-.74.65-1.25.65-2.29v-11.09h-3.87v-3.5h8.31v14.94c0,2.02-.52,3.57-1.56,4.67s-2.51,1.64-4.41,1.64c-.63,0-1.23-.04-1.8-.11Z"/><path class="cls-8" d="M117.96,45.06h-2.11v-3.5h6.57v20.9h-4.46v-17.4Z"/><path class="cls-8" d="M129.1,45.06h-2.11v-3.5h6.57v20.9h-4.46v-17.4Z"/><path class="cls-8" d="M154.4,44.39l-7.26,18.07h-4.75l7.19-17.4h-11.71v-9.6h4.46v6.1h12.06v2.83Z"/><path class="cls-8" d="M166.49,48.29c0-1.02-.29-1.81-.88-2.38s-1.41-.85-2.48-.85h-6.64v-3.5h6.89c1.57,0,2.92.28,4.06.83s2.01,1.36,2.61,2.41.9,2.3.9,3.75v13.9h-4.46v-14.17Z"/><path class="cls-8" d="M185.97,45.06h-2.16v-3.5h6.56v28.21h-4.39v-24.71Z"/><path class="cls-8" d="M194.63,61.91l.7-3.29c1.82.45,3.42.67,4.82.67,1.8-.02,3.16-.45,4.05-1.29s1.34-2.07,1.34-3.68v-9.26h-10.12v-3.5h14.59v11.92c0,3.14-.82,5.48-2.47,7s-3.94,2.29-6.88,2.29c-1.79,0-3.8-.29-6.03-.86Z"/><path class="cls-8" d="M216.69,45.06h-2.11v-3.5h6.57v20.9h-4.46v-17.4Z"/><path class="cls-8" d="M242.51,43.54c1.39,1.32,2.08,3.31,2.08,5.96v12.96h-4.45l-.02-13.27c0-1.43-.3-2.48-.91-3.14s-1.57-.99-2.88-.99h-2.83c-.27.64-.49,1.41-.65,2.29s-.25,1.74-.25,2.58v6.49c0,2.03-.51,3.58-1.53,4.67s-2.47,1.63-4.34,1.63c-.71,0-1.51-.06-2.37-.19v-3.5c.41.04.8.05,1.18.05.93,0,1.61-.24,2.06-.72s.67-1.23.67-2.25v-5.78c0-.91.12-1.86.37-2.84s.59-1.78,1.02-2.42h-3.57v-3.5h10.21c2.75,0,4.83.66,6.21,1.99Z"/><path class="cls-8" d="M258.58,55.3c0-1.16.1-2.06.31-2.71s.47-1.23.8-1.76h3.59c-.26,1.03-.39,2.38-.39,4.06v7.56h-4.31v-7.15ZM270.94,49.13c0-1.41-.34-2.44-1.02-3.09s-1.74-.98-3.18-.98h-8.12v-3.5h8.42c2.7,0,4.76.67,6.2,2s2.15,3.25,2.15,5.76v13.15h-4.45v-13.32Z"/><path class="cls-8" d="M293.6,53.49l6.35,8.96h-4.97l-8.51-12.02c-.4.34-.69.76-.89,1.25s-.29,1.07-.29,1.74v9.04h-4.31v-7.22c0-1.88.3-3.39.91-4.55s1.55-2.05,2.86-2.67l-4.57-6.45h4.99l5.7,8.07,4.24-8.07h5.01l-6.5,11.94Z"/><path class="cls-8" d="M305.25,45.06h-2.11v-3.5h6.57v20.9h-4.46v-17.4Z"/><path class="cls-8" d="M323.59,48.29c0-1.02-.29-1.81-.88-2.38s-1.41-.85-2.48-.85h-6.64v-3.5h6.89c1.57,0,2.92.28,4.06.83s2.01,1.36,2.61,2.41.9,2.3.9,3.75v13.9h-4.46v-14.17Z"/><path class="cls-1" d="M408.26,96.51h-48.25V0h48.25c26.65,0,48.25,21.6,48.25,48.25h0c0,26.65-21.6,48.25-48.25,48.25Z"/><path class="cls-5" d="M362.31,94.2V2.31h45.94c25.33,0,45.94,20.61,45.94,45.94s-20.61,45.94-45.94,45.94h-45.94Z"/><path class="cls-2" d="M405.2,68.4c-17.34,0-31.06-18.75-31.63-19.54l-.43-.6.43-.6c.58-.8,14.3-19.54,31.63-19.54s31.06,18.74,31.63,19.54l.43.6-.43.6c-.58.8-14.3,19.54-31.63,19.54ZM375.69,48.25c2.5,3.2,14.91,18.09,29.51,18.09s27.01-14.89,29.51-18.09c-2.5-3.2-14.91-18.09-29.51-18.09s-27.01,14.89-29.51,18.09Z"/><circle class="cls-7" cx="405.2" cy="48.25" r="14.6"/><circle class="cls-4" cx="405.2" cy="48.25" r="8.76"/><circle class="cls-6" cx="405.2" cy="48.25" r="14.6"/></g></svg>