<?xml version="1.0" encoding="UTF-8"?><svg id="Layer_2" xmlns="http://www.w3.org/2000/svg" xmlns:xlink="http://www.w3.org/1999/xlink" viewBox="0 0 456.51 96.51"><defs><style>.cls-1{fill:url(#linear-gradient-2);}.cls-2,.cls-3{fill:#fff;}.cls-4{fill:url(#linear-gradient-3);}.cls-3{stroke:url(#linear-gradient);stroke-miterlimit:10;stroke-width:3px;}.cls-5{fill:#3d1ba4;}</style><linearGradient id="linear-gradient" x1="0" y1="48.25" x2="385.2" y2="48.25" gradientUnits="userSpaceOnUse"><stop offset="0" stop-color="#10054d"/><stop offset="0" stop-color="#12054e"/><stop offset=".71" stop-color="#3d065f"/><stop offset=".98" stop-color="#45108a"/></linearGradient><linearGradient id="linear-gradient-2" x1="349.4" y1="100.04" x2="443.94" y2="-7.26" gradientUnits="userSpaceOnUse"><stop offset=".28" stop-color="#450c81"/><stop offset=".31" stop-color="#471485"/><stop offset=".38" stop-color="#4f2b93"/><stop offset=".45" stop-color="#5c50a9"/><stop offset=".54" stop-color="#6e85c7"/><stop offset=".64" stop-color="#84c6ee"/><stop offset=".68" stop-color="#8ee3ff"/></linearGradient><linearGradient id="linear-gradient-3" x1="362.31" y1="48.25" x2="454.2" y2="48.25" xlink:href="#linear-gradient"/></defs><g id="Layer_8"><path class="cls-3" d="M36.17,13.59h347.54v69.33H36.17c-19.13,0-34.67-15.53-34.67-34.67h0C1.5,29.12,17.03,13.59,36.17,13.59Z"/><path class="cls-5" d="M69.41,67.53h-4.41v-24.71h-6.01c-.3.66-.54,1.41-.71,2.27s-.26,1.7-.26,2.53v2.11c.49.15,1.24.23,2.25.23v3.32c-.48.05-1,.07-1.55.07-1.02,0-1.94-.1-2.75-.3s-1.57-.5-2.28-.91l-.04-3.13c-.02-1.16.1-2.3.38-3.43s.65-2.04,1.12-2.76h-2.37v-3.5h16.63v28.21Z"/><path class="cls-5" d="M90.89,39.32v3.5h-3.59v17.4h-4.46v-17.4h-9.35v-3.5h17.4Z"/><path class="cls-5" d="M109.85,42.15l-7.26,18.07h-4.75l7.19-17.4h-11.71v-9.6h4.46v6.1h12.06v2.83Z"/><path class="cls-5" d="M138.79,39.32v12.23c0,1.96-.41,3.62-1.22,4.98s-1.96,2.4-3.43,3.1-3.18,1.05-5.12,1.05c-2.59,0-5.22-.5-7.89-1.49l.98-3.29c1.91.73,3.63,1.17,5.17,1.34-.42-.42-.79-.91-1.11-1.46s-.54-1.14-.69-1.78l-3.34-14.7h4.48l3.22,15.06c.23,1.08.53,1.95.9,2.62,1.15-.36,2.04-.99,2.66-1.87s.94-2.01.94-3.38v-12.43h4.45Z"/><path class="cls-5" d="M146.27,42.82h-3.53v-3.5h8v11.79h-4.46v-8.3Z"/><path class="cls-5" d="M153.76,60.33v-4.04c.4.07.86.11,1.37.11,1.48-.04,2.69-.44,3.65-1.2s1.62-1.81,2.01-3.14v-9.23h-4.66v-3.5h9.04v10.67c0,1.1.11,2.2.33,3.29l1.44,6.94h-4.15l-1.23-5.54h-.11c-.16,1.04-.55,2-1.17,2.87s-1.39,1.57-2.34,2.08-1.97.77-3.09.77c-.45,0-.81-.03-1.11-.09Z"/><path class="cls-5" d="M172.76,47.74c.12-.95.37-1.85.77-2.7s.85-1.51,1.38-2c.08-.08.18-.16.3-.23l-.04-.07c-.48.08-1.08.22-1.79.41s-1.34.39-1.88.59l-.98-3.27c1.36-.49,2.92-.89,4.68-1.19s3.4-.45,4.92-.45c3.01,0,5.31.78,6.88,2.35s2.37,3.86,2.38,6.9v12.13h-8.89v-3.5h4.43v-9.19c0-1.62-.35-2.86-1.04-3.72s-1.68-1.29-2.97-1.29c-1.05,0-1.91.41-2.57,1.23s-1.07,1.97-1.23,3.46l-1.39,13.01h-4.41l1.46-12.48Z"/><path class="cls-5" d="M208.17,55.81c1.07.46,2.2.81,3.39,1.07s2.32.39,3.38.39c1.68,0,3.16-.24,4.44-.71s2.29-1.2,3.01-2.18,1.09-2.21,1.09-3.68v-11.37h4.31v11.85c0,2.09-.56,3.85-1.69,5.3s-2.64,2.53-4.55,3.25-4.05,1.08-6.42,1.08c-1.84,0-3.74-.22-5.7-.66s-3.81-1.08-5.57-1.92v-18.9h4.31v16.49ZM213.32,52.07c.18-.81.26-1.73.26-2.75v-10h4.32v9.12c0,1.2-.14,2.28-.43,3.24s-.7,1.75-1.24,2.35l-3.66-.07c.32-.45.56-1.08.74-1.89Z"/><path class="cls-5" d="M235.13,47.74c.12-.95.37-1.85.77-2.7s.85-1.51,1.38-2c.08-.08.18-.16.3-.23l-.04-.07c-.48.08-1.08.22-1.79.41s-1.34.39-1.88.59l-.98-3.27c1.36-.49,2.92-.89,4.68-1.19s3.4-.45,4.92-.45c3.01,0,5.31.78,6.88,2.35s2.37,3.86,2.38,6.9v12.13h-8.89v-3.5h4.43v-9.19c0-1.62-.35-2.86-1.04-3.72s-1.68-1.29-2.97-1.29c-1.05,0-1.91.41-2.57,1.23s-1.07,1.97-1.23,3.46l-1.39,13.01h-4.41l1.46-12.48Z"/><path class="cls-5" d="M272.57,41.31c1.39,1.32,2.08,3.31,2.08,5.96v12.96h-4.45l-.02-13.27c0-1.43-.3-2.48-.91-3.14s-1.57-.99-2.88-.99h-2.83c-.27.64-.49,1.41-.65,2.29s-.25,1.74-.25,2.58v6.49c0,2.03-.51,3.58-1.53,4.67s-2.47,1.63-4.34,1.63c-.71,0-1.51-.06-2.37-.19v-3.5c.41.04.8.05,1.18.05.93,0,1.61-.24,2.06-.72s.67-1.23.67-2.25v-5.78c0-.91.12-1.86.37-2.84s.59-1.78,1.02-2.42h-3.57v-3.5h10.21c2.75,0,4.83.66,6.21,1.99Z"/><path class="cls-5" d="M284.47,55.81c1.07.46,2.2.81,3.39,1.07s2.32.39,3.38.39c1.68,0,3.16-.24,4.44-.71s2.29-1.2,3.01-2.18,1.09-2.21,1.09-3.68v-11.37h4.31v11.85c0,2.09-.56,3.85-1.69,5.3s-2.64,2.53-4.55,3.25-4.05,1.08-6.42,1.08c-1.84,0-3.74-.22-5.7-.66s-3.81-1.08-5.57-1.92v-18.9h4.31v16.49ZM289.62,52.07c.18-.81.26-1.73.26-2.75v-10h4.32v9.12c0,1.2-.14,2.28-.43,3.24s-.7,1.75-1.24,2.35l-3.66-.07c.32-.45.56-1.08.74-1.89Z"/><path class="cls-5" d="M311.44,47.74c.12-.95.37-1.85.77-2.7s.85-1.51,1.38-2c.08-.08.18-.16.3-.23l-.04-.07c-.48.08-1.08.22-1.79.41s-1.34.39-1.88.59l-.98-3.27c1.36-.49,2.92-.89,4.68-1.19s3.4-.45,4.92-.45c3.01,0,5.31.78,6.88,2.35s2.37,3.86,2.38,6.9v12.13h-8.89v-3.5h4.43v-9.19c0-1.62-.35-2.86-1.04-3.72s-1.68-1.29-2.97-1.29c-1.05,0-1.91.41-2.57,1.23s-1.07,1.97-1.23,3.46l-1.39,13.01h-4.41l1.46-12.48Z"/><path class="cls-1" d="M408.26,96.51h-48.25V0h48.25c26.65,0,48.25,21.6,48.25,48.25h0c0,26.65-21.6,48.25-48.25,48.25Z"/><path class="cls-4" d="M362.31,94.2V2.31h45.94c25.33,0,45.94,20.61,45.94,45.94s-20.61,45.94-45.94,45.94h-45.94Z"/><path class="cls-2" d="M418.46,65.55h-2.31v-5.09c0-3.7-3.01-6.7-6.7-6.7v-2.31c4.97,0,9.01,4.04,9.01,9.01v5.09Z"/><path class="cls-2" d="M394.26,65.55h-2.31v-5.09c0-4.97,4.04-9.01,9.01-9.01v2.31c-3.7,0-6.7,3.01-6.7,6.7v5.09Z"/><path class="cls-2" d="M405.2,49.99c-4.36,0-7.91-3.55-7.91-7.91s3.55-7.91,7.91-7.91,7.91,3.55,7.91,7.91-3.55,7.91-7.91,7.91ZM405.2,36.48c-3.09,0-5.6,2.51-5.6,5.6s2.51,5.6,5.6,5.6,5.6-2.51,5.6-5.6-2.51-5.6-5.6-5.6Z"/><path class="cls-2" d="M405.2,72.95c-13.37,0-24.25-10.88-24.25-24.26s10.88-24.25,24.25-24.25,24.26,10.88,24.26,24.25-10.88,24.26-24.26,24.26ZM405.2,26.75c-12.1,0-21.94,9.84-21.94,21.94s9.84,21.95,21.94,21.95,21.94-9.84,21.94-21.95-9.84-21.94-21.94-21.94Z"/></g></svg>