<?xml version="1.0" encoding="UTF-8"?><svg id="Layer_2" xmlns="http://www.w3.org/2000/svg" xmlns:xlink="http://www.w3.org/1999/xlink" viewBox="0 0 456.51 96.51"><defs><style>.cls-1{fill:url(#linear-gradient-2);}.cls-2,.cls-3{fill:#fff;}.cls-4{fill:url(#linear-gradient-3);}.cls-3{stroke:url(#linear-gradient);stroke-miterlimit:10;stroke-width:3px;}.cls-5{fill:#76dfff;}.cls-6{fill:#3d1ba4;}</style><linearGradient id="linear-gradient" x1="0" y1="48.25" x2="385.2" y2="48.25" gradientUnits="userSpaceOnUse"><stop offset="0" stop-color="#10054d"/><stop offset="0" stop-color="#12054e"/><stop offset=".71" stop-color="#3d065f"/><stop offset=".98" stop-color="#45108a"/></linearGradient><linearGradient id="linear-gradient-2" x1="349.4" y1="100.04" x2="443.94" y2="-7.26" gradientUnits="userSpaceOnUse"><stop offset=".28" stop-color="#450c81"/><stop offset=".31" stop-color="#471485"/><stop offset=".38" stop-color="#4f2b93"/><stop offset=".45" stop-color="#5c50a9"/><stop offset=".54" stop-color="#6e85c7"/><stop offset=".64" stop-color="#84c6ee"/><stop offset=".68" stop-color="#8ee3ff"/></linearGradient><linearGradient id="linear-gradient-3" x1="362.31" y1="48.25" x2="454.2" y2="48.25" xlink:href="#linear-gradient"/></defs><g id="Layer_8"><path class="cls-3" d="M36.17,13.59h347.54v69.33H36.17c-19.13,0-34.67-15.53-34.67-34.67h0C1.5,29.12,17.03,13.59,36.17,13.59Z"/><path class="cls-6" d="M117.83,44.79h-2.11v-3.5h6.57v20.9h-4.46v-17.4Z"/><path class="cls-6" d="M129.79,44.79h-3.53v-3.5h8v11.79h-4.46v-8.3Z"/><path class="cls-6" d="M154.8,44.12l-7.26,18.07h-4.75l7.19-17.4h-11.71v-9.6h4.46v6.1h12.06v2.83Z"/><path class="cls-6" d="M171.76,53.23l6.35,8.96h-4.97l-8.51-12.02c-.4.34-.69.76-.89,1.25s-.29,1.07-.29,1.74v9.04h-4.31v-7.22c0-1.88.3-3.39.91-4.55s1.55-2.05,2.86-2.67l-4.57-6.45h4.99l5.7,8.07,4.24-8.07h5.01l-6.5,11.94Z"/><path class="cls-6" d="M207.32,58.83v3.36h-17.61v-3.52h10.69v-9.81c0-1.41-.34-2.44-1.01-3.09s-1.73-.98-3.17-.98h-5.36v-3.5h5.64c2.7,0,4.76.67,6.2,2s2.15,3.25,2.15,5.76v9.47l2.48.32Z"/><path class="cls-6" d="M212.49,44.79h-3.53v-3.5h8v11.79h-4.46v-8.3Z"/><path class="cls-6" d="M219.98,62.3v-4.04c.4.07.86.11,1.37.11,1.48-.04,2.69-.44,3.65-1.2s1.62-1.81,2.01-3.14v-9.23h-4.66v-3.5h9.04v10.67c0,1.1.11,2.2.33,3.29l1.44,6.94h-4.15l-1.23-5.54h-.11c-.16,1.04-.55,2-1.17,2.87s-1.39,1.57-2.34,2.08-1.97.77-3.09.77c-.45,0-.81-.03-1.11-.09Z"/><path class="cls-6" d="M238.98,49.71c.12-.95.37-1.85.77-2.7s.85-1.51,1.38-2c.08-.08.18-.16.3-.23l-.04-.07c-.48.08-1.08.22-1.79.41s-1.34.39-1.88.59l-.98-3.27c1.36-.49,2.92-.89,4.68-1.19s3.4-.45,4.92-.45c3.01,0,5.31.78,6.88,2.35s2.37,3.86,2.38,6.9v12.13h-8.89v-3.5h4.43v-9.19c0-1.62-.35-2.86-1.04-3.72s-1.68-1.29-2.97-1.29c-1.05,0-1.91.41-2.57,1.23s-1.07,1.97-1.23,3.46l-1.39,13.01h-4.41l1.46-12.48Z"/><path class="cls-6" d="M286.07,69.5h-4.41v-24.71h-6.01c-.3.66-.54,1.41-.71,2.27s-.26,1.7-.26,2.53v2.11c.49.15,1.24.23,2.25.23v3.32c-.48.05-1,.07-1.55.07-1.02,0-1.94-.1-2.75-.3s-1.57-.5-2.28-.91l-.04-3.13c-.02-1.16.1-2.3.38-3.43s.65-2.04,1.12-2.76h-2.37v-3.5h16.63v28.21Z"/><path class="cls-6" d="M307.55,41.29v3.5h-3.59v17.4h-4.46v-17.4h-9.35v-3.5h17.4Z"/><path class="cls-6" d="M311.25,55.04c0-1.16.1-2.06.31-2.71s.47-1.23.8-1.76h3.59c-.26,1.03-.39,2.38-.39,4.06v7.56h-4.31v-7.15ZM323.6,48.87c0-1.41-.34-2.44-1.02-3.09s-1.74-.98-3.18-.98h-8.12v-3.5h8.42c2.7,0,4.76.67,6.2,2s2.15,3.25,2.15,5.76v13.15h-4.45v-13.32Z"/><path class="cls-1" d="M408.26,96.51h-48.25V0h48.25c26.65,0,48.25,21.6,48.25,48.25h0c0,26.65-21.6,48.25-48.25,48.25Z"/><path class="cls-4" d="M362.31,94.2V2.31h45.94c25.33,0,45.94,20.61,45.94,45.94s-20.61,45.94-45.94,45.94h-45.94Z"/><path class="cls-2" d="M393.78,77.26c-.26,0-.52-.06-.76-.2-.67-.38-.96-1.19-.68-1.9l8.68-22.18h-14.72c-.61,0-1.16-.36-1.41-.92-.25-.56-.14-1.21.28-1.66l28.12-30.65c.3-.33.72-.5,1.14-.5.31,0,.62.09.89.28.63.45.83,1.3.47,1.98l-12,22.36h13.32c.59,0,1.12.33,1.38.86.26.53.2,1.15-.16,1.62l-23.32,30.3c-.3.39-.76.6-1.22.6Z"/><polygon class="cls-5" points="393.78 75.72 417.11 45.42 401.21 45.42 414.43 20.79 386.31 51.44 403.29 51.44 393.78 75.72"/></g></svg>