<?xml version="1.0" encoding="UTF-8"?><svg id="Layer_2" xmlns="http://www.w3.org/2000/svg" xmlns:xlink="http://www.w3.org/1999/xlink" viewBox="0 0 456.51 96.51"><defs><style>.cls-1{fill:url(#linear-gradient-2);}.cls-2,.cls-3{fill:#fff;}.cls-4{fill:url(#linear-gradient-3);}.cls-3{stroke:url(#linear-gradient);stroke-miterlimit:10;stroke-width:3px;}.cls-5{fill:#76dfff;}.cls-6{fill:#3d1ba4;}</style><linearGradient id="linear-gradient" x1="0" y1="48.25" x2="385.2" y2="48.25" gradientUnits="userSpaceOnUse"><stop offset="0" stop-color="#10054d"/><stop offset="0" stop-color="#12054e"/><stop offset=".71" stop-color="#3d065f"/><stop offset=".98" stop-color="#45108a"/></linearGradient><linearGradient id="linear-gradient-2" x1="349.4" y1="100.04" x2="443.94" y2="-7.26" gradientUnits="userSpaceOnUse"><stop offset=".28" stop-color="#450c81"/><stop offset=".31" stop-color="#471485"/><stop offset=".38" stop-color="#4f2b93"/><stop offset=".45" stop-color="#5c50a9"/><stop offset=".54" stop-color="#6e85c7"/><stop offset=".64" stop-color="#84c6ee"/><stop offset=".68" stop-color="#8ee3ff"/></linearGradient><linearGradient id="linear-gradient-3" x1="362.31" y1="48.25" x2="454.2" y2="48.25" xlink:href="#linear-gradient"/></defs><g id="Layer_8"><path class="cls-3" d="M36.17,13.59h347.54v69.33H36.17c-19.13,0-34.67-15.53-34.67-34.67h0C1.5,29.12,17.03,13.59,36.17,13.59Z"/><path class="cls-6" d="M112.59,44.42l-7.26,18.07h-4.75l7.19-17.4h-11.71v-9.6h4.46v6.1h12.06v2.83Z"/><path class="cls-6" d="M132.56,41.59v12.23c0,1.96-.41,3.62-1.22,4.98s-1.96,2.4-3.43,3.1-3.18,1.05-5.12,1.05c-2.59,0-5.22-.5-7.89-1.49l.98-3.29c1.91.73,3.63,1.17,5.17,1.34-.42-.42-.79-.91-1.11-1.46s-.54-1.14-.69-1.78l-3.34-14.7h4.48l3.22,15.06c.23,1.08.53,1.95.9,2.62,1.15-.36,2.04-.99,2.66-1.87s.94-2.01.94-3.38v-12.43h4.45Z"/><path class="cls-6" d="M139.24,45.09h-2.11v-3.5h6.57v20.9h-4.46v-17.4Z"/><path class="cls-6" d="M153.7,62.57c-1.33-.22-2.57-.52-3.72-.92l.83-3.29c1.09.32,2.19.56,3.3.72s2.08.25,2.93.25c1.79-.02,3.16-.45,4.11-1.29s1.41-2.07,1.41-3.68v-9.26h-7.22c-.3.66-.54,1.39-.71,2.21s-.26,1.63-.26,2.45v1.3c.49.15,1.24.23,2.25.23v3.32c-.48.05-1,.07-1.55.07-1.02,0-1.94-.1-2.75-.3s-1.57-.5-2.28-.91l-.04-2.32c0-1.16.13-2.28.4-3.36s.63-1.97,1.1-2.69h-2.37v-3.5h17.89v12.04c0,2.07-.41,3.8-1.24,5.19s-1.96,2.41-3.4,3.08-3.1,1-4.97,1c-1.14,0-2.37-.11-3.7-.33Z"/><path class="cls-6" d="M186.34,58.08c1.07.46,2.2.81,3.39,1.07s2.32.39,3.38.39c1.68,0,3.16-.24,4.44-.71s2.29-1.2,3.01-2.18,1.09-2.21,1.09-3.68v-11.37h4.31v11.85c0,2.09-.56,3.85-1.69,5.3s-2.64,2.53-4.55,3.25-4.05,1.08-6.42,1.08c-1.84,0-3.74-.22-5.7-.66s-3.81-1.08-5.57-1.92v-18.9h4.31v16.49ZM191.49,54.34c.18-.81.26-1.73.26-2.75v-10h4.32v9.12c0,1.2-.14,2.28-.43,3.24s-.7,1.75-1.24,2.35l-3.66-.07c.32-.45.56-1.08.74-1.89Z"/><path class="cls-6" d="M213.3,50.01c.12-.95.37-1.85.77-2.7s.85-1.51,1.38-2c.08-.08.18-.16.3-.23l-.04-.07c-.48.08-1.08.22-1.79.41s-1.34.39-1.88.59l-.98-3.27c1.36-.49,2.92-.89,4.68-1.19s3.4-.45,4.92-.45c3.01,0,5.31.78,6.88,2.35s2.37,3.86,2.38,6.9v12.13h-8.89v-3.5h4.43v-9.19c0-1.62-.35-2.86-1.04-3.72s-1.68-1.29-2.97-1.29c-1.05,0-1.91.41-2.57,1.23s-1.07,1.97-1.23,3.46l-1.39,13.01h-4.41l1.46-12.48Z"/><path class="cls-6" d="M250.73,43.58c1.39,1.32,2.08,3.31,2.08,5.96v12.96h-4.45l-.02-13.27c0-1.43-.3-2.48-.91-3.14s-1.57-.99-2.88-.99h-2.83c-.27.64-.49,1.41-.65,2.29s-.25,1.74-.25,2.58v6.49c0,2.03-.51,3.58-1.53,4.67s-2.47,1.63-4.34,1.63c-.71,0-1.51-.06-2.37-.19v-3.5c.41.04.8.05,1.18.05.93,0,1.61-.24,2.06-.72s.67-1.23.67-2.25v-5.78c0-.91.12-1.86.37-2.84s.59-1.78,1.02-2.42h-3.57v-3.5h10.21c2.75,0,4.83.66,6.21,1.99Z"/><path class="cls-6" d="M262.64,58.08c1.07.46,2.2.81,3.39,1.07s2.32.39,3.38.39c1.68,0,3.16-.24,4.44-.71s2.29-1.2,3.01-2.18,1.09-2.21,1.09-3.68v-11.37h4.31v11.85c0,2.09-.56,3.85-1.69,5.3s-2.64,2.53-4.55,3.25-4.05,1.08-6.42,1.08c-1.84,0-3.74-.22-5.7-.66s-3.81-1.08-5.57-1.92v-18.9h4.31v16.49ZM267.79,54.34c.18-.81.26-1.73.26-2.75v-10h4.32v9.12c0,1.2-.14,2.28-.43,3.24s-.7,1.75-1.24,2.35l-3.66-.07c.32-.45.56-1.08.74-1.89Z"/><path class="cls-6" d="M289.61,50.01c.12-.95.37-1.85.77-2.7s.85-1.51,1.38-2c.08-.08.18-.16.3-.23l-.04-.07c-.48.08-1.08.22-1.79.41s-1.34.39-1.88.59l-.98-3.27c1.36-.49,2.92-.89,4.68-1.19s3.4-.45,4.92-.45c3.01,0,5.31.78,6.88,2.35s2.37,3.86,2.38,6.9v12.13h-8.89v-3.5h4.43v-9.19c0-1.62-.35-2.86-1.04-3.72s-1.68-1.29-2.97-1.29c-1.05,0-1.91.41-2.57,1.23s-1.07,1.97-1.23,3.46l-1.39,13.01h-4.41l1.46-12.48Z"/><path class="cls-6" d="M311.25,55.34c0-1.16.1-2.06.31-2.71s.47-1.23.8-1.76h3.59c-.26,1.03-.39,2.38-.39,4.06v7.56h-4.31v-7.15ZM323.6,49.17c0-1.41-.34-2.44-1.02-3.09s-1.74-.98-3.18-.98h-8.12v-3.5h8.42c2.7,0,4.76.67,6.2,2s2.15,3.25,2.15,5.76v13.15h-4.45v-13.32Z"/><path class="cls-1" d="M408.26,96.51h-48.25V0h48.25c26.65,0,48.25,21.6,48.25,48.25h0c0,26.65-21.6,48.25-48.25,48.25Z"/><path class="cls-4" d="M362.31,94.2V2.31h45.94c25.33,0,45.94,20.61,45.94,45.94s-20.61,45.94-45.94,45.94h-45.94Z"/><path class="cls-2" d="M403.44,68.26c-.24,0-.46-.11-.61-.3l-16.7-22.29c-.18-.25-.2-.58-.04-.85l3.04-5.07c.13-.22.36-.36.61-.37.01,0,.03,0,.04,0,.24,0,.47.11.61.31l11.4,15.34,12.27-26.35c.12-.27.39-.44.69-.44h7.45c.26,0,.51.14.64.36.14.22.15.5.04.74l-18.74,38.5c-.12.24-.35.4-.61.42-.02,0-.05,0-.07,0Z"/><polygon class="cls-5" points="386.73 45.21 403.44 67.5 422.18 29 414.73 29 401.93 56.51 389.77 40.15 386.73 45.21"/><polygon class="cls-5" points="393.63 67.97 378.49 67.97 378.49 29.98 404.41 29.98 404.41 31.52 380.03 31.52 380.03 66.43 393.63 66.43 393.63 67.97"/></g></svg>