<?xml version="1.0" encoding="UTF-8"?><svg xmlns="http://www.w3.org/2000/svg" xmlns:xlink="http://www.w3.org/1999/xlink" viewBox="0 0 442.81 432.81"><defs><style>.cls-1{fill:url(#linear-gradient-15);}.cls-2{stroke:url(#linear-gradient-2);stroke-width:7.78px;}.cls-2,.cls-3,.cls-4,.cls-5,.cls-6,.cls-7,.cls-8,.cls-9,.cls-10,.cls-11,.cls-12,.cls-13,.cls-14{fill:none;stroke-miterlimit:10;}.cls-15{fill:url(#linear-gradient-12);}.cls-16{fill:#a985fc;mix-blend-mode:screen;opacity:.15;}.cls-3{stroke:url(#linear-gradient-6);}.cls-3,.cls-4,.cls-5,.cls-9,.cls-10,.cls-11,.cls-12,.cls-13,.cls-14{stroke-width:1.91px;}.cls-17,.cls-18{fill:#fff;}.cls-4{stroke:url(#linear-gradient-3);}.cls-5{stroke:url(#linear-gradient-5);}.cls-5,.cls-10,.cls-14{stroke-linecap:round;}.cls-19{fill:url(#linear-gradient-4);}.cls-20{isolation:isolate;}.cls-6{stroke-width:.96px;}.cls-6,.cls-12{stroke:#fff;}.cls-7{stroke:#140651;stroke-width:1.94px;}.cls-21{fill:url(#linear-gradient-7);}.cls-22{fill:url(#linear-gradient-9);}.cls-8{stroke:#e4bff7;stroke-width:6.81px;}.cls-9{stroke:url(#linear-gradient-8);}.cls-10{stroke:url(#linear-gradient-10);}.cls-11{stroke:url(#linear-gradient-14);}.cls-13{stroke:url(#linear-gradient-11);}.cls-14{stroke:url(#linear-gradient-13);}.cls-23{fill:url(#linear-gradient);}.cls-18{font-family:Heebo-Bold, Heebo;font-size:74px;font-weight:700;}</style><linearGradient id="linear-gradient" x1="221.4" y1="429.4" x2="221.4" y2="3.4" gradientUnits="userSpaceOnUse"><stop offset="0" stop-color="#10054d"/><stop offset="0" stop-color="#12054e"/><stop offset=".79" stop-color="#45108a"/></linearGradient><linearGradient id="linear-gradient-2" x1="221.4" y1="431.35" x2="221.4" y2="1.46" gradientUnits="userSpaceOnUse"><stop offset="0" stop-color="#10054d"/><stop offset="0" stop-color="#12054e"/><stop offset=".79" stop-color="#45108a"/></linearGradient><linearGradient id="linear-gradient-3" x1="52.67" y1="174.49" x2="175.85" y2="174.49" gradientUnits="userSpaceOnUse"><stop offset="0" stop-color="#fff"/><stop offset=".32" stop-color="#e2d6f8" stop-opacity=".21"/><stop offset=".42" stop-color="#cab5f2" stop-opacity=".43"/><stop offset=".54" stop-color="#af8eec" stop-opacity=".7"/><stop offset=".6" stop-color="#a580ea" stop-opacity=".8"/><stop offset=".67" stop-color="#9a71e7" stop-opacity=".84"/><stop offset=".88" stop-color="#7d48e0" stop-opacity=".96"/><stop offset="1" stop-color="#7339de"/></linearGradient><linearGradient id="linear-gradient-4" x1="52.67" y1="156.23" x2="175.85" y2="156.23" xlink:href="#linear-gradient-3"/><linearGradient id="linear-gradient-5" x1="55.12" y1="191.91" x2="176.81" y2="191.91" xlink:href="#linear-gradient-3"/><linearGradient id="linear-gradient-6" x1="34.41" y1="209.96" y2="209.96" xlink:href="#linear-gradient-3"/><linearGradient id="linear-gradient-7" x1="34.41" y1="200.4" x2="175.85" y2="200.4" xlink:href="#linear-gradient-3"/><linearGradient id="linear-gradient-8" x1="64.99" y1="226.95" y2="226.95" xlink:href="#linear-gradient-3"/><linearGradient id="linear-gradient-9" x1="64.99" y1="221.64" x2="175.85" y2="221.64" xlink:href="#linear-gradient-3"/><linearGradient id="linear-gradient-10" x1="70.83" y1="243.96" x2="176.81" y2="243.96" xlink:href="#linear-gradient-3"/><linearGradient id="linear-gradient-11" x1="60.74" y1="259.87" y2="259.87" xlink:href="#linear-gradient-3"/><linearGradient id="linear-gradient-12" x1="60.74" y1="268.79" x2="175.85" y2="268.79" xlink:href="#linear-gradient-3"/><linearGradient id="linear-gradient-13" x1="43.65" y1="278.34" x2="176.81" y2="278.34" xlink:href="#linear-gradient-3"/><linearGradient id="linear-gradient-14" x1="57.77" y1="295.55" y2="295.55" xlink:href="#linear-gradient-3"/><linearGradient id="linear-gradient-15" x1="57.77" y1="315.51" x2="175.85" y2="315.51" xlink:href="#linear-gradient-3"/></defs><g class="cls-20"><g id="Layer_2"><g id="Layer_9"><rect class="cls-8" x="3.4" y="3.4" width="436" height="426" rx="25.28" ry="25.28"/><rect class="cls-23" x="3.4" y="3.4" width="436" height="426" rx="25.28" ry="25.28"/><path class="cls-2" d="M28.68,5.35h385.44c12.88,0,23.34,10.46,23.34,23.34v375.44c0,12.88-10.46,23.34-23.34,23.34H28.68c-12.88,0-23.34-10.46-23.34-23.34V28.68C5.35,15.8,15.8,5.35,28.68,5.35Z"/><rect class="cls-16" x="3.4" y="3.4" width="436" height="426" rx="25.28" ry="25.28"/><rect class="cls-7" x="3.4" y="3.4" width="436" height="426" rx="25.28" ry="25.28"/><path class="cls-4" d="M175.85,192.76h-22.09c-10.62,0-28.46-20.39-36.53-26.33s-20.39-10.19-29.31-10.19h-29.11"/><path class="cls-19" d="M59.14,149.76c-3.57,0-6.47,2.9-6.47,6.47s2.9,6.47,6.47,6.47,6.47-2.9,6.47-6.47-2.9-6.47-6.47-6.47Z"/><path class="cls-5" d="M175.85,206.77h-15.37c-9.19,0-18.23-2.35-26.26-6.83-6.69-3.72-14.58-8.36-19.96-12.29-11.04-8.07-29.31-10.62-36.95-10.62h-21.24"/><path class="cls-3" d="M175.85,219.52h-33.98c-3.82,0-14.44-5.1-23.79-10.19-9.34-5.1-19.54-8.92-31.86-8.92h-45.68"/><path class="cls-21" d="M40.88,193.94c-3.57,0-6.47,2.9-6.47,6.47s2.9,6.47,6.47,6.47,6.47-2.9,6.47-6.47-2.9-6.47-6.47-6.47Z"/><path class="cls-9" d="M175.85,232.26h-21.66c-7.22,0-21.66-2.97-32.28-5.52-10.62-2.55-39.93-5.1-48.42-5.1h-2.36"/><path class="cls-22" d="M71.46,215.17c-3.57,0-6.47,2.9-6.47,6.47s2.9,6.47,6.47,6.47,6.47-2.9,6.47-6.47-2.9-6.47-6.47-6.47Z"/><path class="cls-10" d="M175.85,241.6h-30.58c-11.47,0-22.94-.85-30.16,0-7.22.85-19.96,5.1-28.03,5.1h-15.29"/><path class="cls-13" d="M175.85,250.95h-23.79c-12.74,0-27.18,2.97-35.68,7.22-8.49,4.25-21.66,10.62-32.28,10.62h-17.22"/><path class="cls-15" d="M67.21,262.32c-3.57,0-6.47,2.9-6.47,6.47s2.9,6.47,6.47,6.47,6.47-2.9,6.47-6.47-2.9-6.47-6.47-6.47Z"/><path class="cls-14" d="M175.85,263.27h-23.79c-10.62,0-22.09,7.22-31.86,13.59-9.77,6.37-20.39,16.57-31.43,16.57h-44.17"/><path class="cls-11" d="M175.85,275.58h-20.39c-8.07,0-18.69,8.92-26.33,16.57-7.65,7.65-26.76,23.36-39.93,23.36h-25.29"/><path class="cls-1" d="M64.24,309.04c-3.57,0-6.47,2.9-6.47,6.47s2.9,6.47,6.47,6.47,6.47-2.9,6.47-6.47-2.9-6.47-6.47-6.47Z"/><rect class="cls-12" x="176.25" y="123.95" width="177.12" height="230" rx="23.25" ry="23.25"/><rect class="cls-12" x="199.18" y="168.55" width="130.61" height="31.22" rx="7.33" ry="7.33"/><rect class="cls-12" x="199.18" y="224.61" width="130.61" height="31.22" rx="7.33" ry="7.33"/><rect class="cls-12" x="199.18" y="280.68" width="130.61" height="31.22" rx="7.33" ry="7.33"/><line class="cls-6" x1="315.77" y1="176.67" x2="315.77" y2="193.55"/><rect class="cls-17" x="312.67" y="176.19" width="6.21" height=".96"/><rect class="cls-17" x="312.67" y="193.08" width="6.21" height=".96"/><text class="cls-18" transform="translate(366.6 91.13)"><tspan x="0" y="0">3</tspan></text></g></g></g></svg>