<?xml version="1.0" encoding="UTF-8"?><svg xmlns="http://www.w3.org/2000/svg" xmlns:xlink="http://www.w3.org/1999/xlink" viewBox="0 0 442.81 432.81"><defs><style>.cls-1{stroke:url(#linear-gradient-2);stroke-width:7.78px;}.cls-1,.cls-2,.cls-3,.cls-4,.cls-5,.cls-6{fill:none;stroke-miterlimit:10;}.cls-7{fill:#a985fc;mix-blend-mode:screen;opacity:.15;}.cls-8,.cls-9{fill:#fff;}.cls-2{stroke-dasharray:4 10;stroke-width:5px;}.cls-2,.cls-4,.cls-6{stroke:#fff;}.cls-10{isolation:isolate;}.cls-3{stroke:#140651;stroke-width:1.94px;}.cls-4{stroke-width:3px;}.cls-5{stroke:#e4bff7;stroke-width:6.81px;}.cls-6{stroke-width:2px;}.cls-11{fill:url(#linear-gradient);}.cls-9{font-family:Heebo-Bold, Heebo;font-size:74px;font-weight:700;}</style><linearGradient id="linear-gradient" x1="221.4" y1="429.4" x2="221.4" y2="3.4" gradientUnits="userSpaceOnUse"><stop offset="0" stop-color="#10054d"/><stop offset="0" stop-color="#12054e"/><stop offset=".79" stop-color="#45108a"/></linearGradient><linearGradient id="linear-gradient-2" x1="221.4" y1="431.35" x2="221.4" y2="1.46" gradientUnits="userSpaceOnUse"><stop offset="0" stop-color="#10054d"/><stop offset="0" stop-color="#12054e"/><stop offset=".79" stop-color="#45108a"/></linearGradient></defs><g class="cls-10"><g id="Layer_2"><g id="Layer_9"><rect class="cls-5" x="3.4" y="3.4" width="436" height="426" rx="25.28" ry="25.28"/><rect class="cls-11" x="3.4" y="3.4" width="436" height="426" rx="25.28" ry="25.28"/><path class="cls-1" d="M28.68,5.35h385.44c12.88,0,23.34,10.46,23.34,23.34v375.44c0,12.88-10.46,23.34-23.34,23.34H28.69c-12.88,0-23.34-10.46-23.34-23.34V28.68C5.35,15.8,15.8,5.35,28.68,5.35Z"/><rect class="cls-7" x="3.4" y="3.4" width="436" height="426" rx="25.28" ry="25.28"/><rect class="cls-3" x="3.4" y="3.4" width="436" height="426" rx="25.28" ry="25.28"/><path class="cls-4" d="M142.24,230.6c13.81,0,25,11.19,25,25v16.2"/><path class="cls-4" d="M90.24,271.8v-16.2c0-13.81,11.19-25,25-25"/><circle class="cls-4" cx="128.74" cy="197.1" r="21.5"/><circle class="cls-4" cx="128.74" cy="218.14" r="73.5"/><rect class="cls-6" x="229.53" y="182.11" width="158" height="166.69" rx="9" ry="9"/><line class="cls-6" x1="248.53" y1="221.91" x2="368.53" y2="221.91"/><line class="cls-6" x1="188.06" y1="221.91" x2="228.59" y2="221.91"/><path class="cls-8" d="M188.44,229.43c-4.15,0-7.52-3.37-7.52-7.52s3.37-7.52,7.52-7.52,7.52,3.37,7.52,7.52-3.37,7.52-7.52,7.52Z"/><line class="cls-6" x1="248.53" y1="248.58" x2="368.53" y2="248.58"/><line class="cls-2" x1="292.34" y1="280.36" x2="367.4" y2="280.36"/><text class="cls-9" transform="translate(357.44 88.86)"><tspan x="0" y="0">1</tspan></text></g></g></g></svg>