<?xml version="1.0" encoding="UTF-8"?><svg id="Layer_2" xmlns="http://www.w3.org/2000/svg" viewBox="0 0 543.48 177.74"><defs><style>.cls-1{fill:#fff;}.cls-2{fill:#3d1ba4;}</style></defs><g id="Layer_4"><rect class="cls-2" x="365.64" y="89.53" width="46.75" height="3"/><polygon class="cls-2" points="375.58 78.76 377.62 80.96 366.79 91.03 377.62 101.1 375.58 103.3 362.38 91.03 375.58 78.76"/><rect class="cls-2" x="139.64" y="89.53" width="46.75" height="3"/><polygon class="cls-2" points="149.58 78.76 151.62 80.96 140.79 91.03 151.62 101.1 149.58 103.3 136.38 91.03 149.58 78.76"/><path class="cls-2" d="M444.14,156.36h17.3v20.9h-17.3v-20.9ZM456.98,173.75v-13.89h-8.37v13.89h8.37Z"/><path class="cls-2" d="M468.93,159.86h-3.53v-3.5h8v11.79h-4.46v-8.3Z"/><path class="cls-2" d="M483.27,176.45c-1.37-.81-2.44-1.95-3.21-3.41s-1.16-3.16-1.19-5.08v-1.67c-.01-.77.09-1.57.32-2.39s.52-1.57.91-2.26.79-1.22,1.24-1.59c.08-.07.16-.13.25-.19l-.04-.07c-.36.06-.85.16-1.46.31s-1.17.3-1.69.45l-.86-3.29c1.39-.41,2.99-.74,4.8-.99s3.48-.38,5.03-.38c2.05,0,3.81.38,5.27,1.14s2.58,1.88,3.35,3.35,1.15,3.24,1.15,5.32v2.27c0,1.92-.38,3.62-1.14,5.08s-1.83,2.6-3.22,3.41-2.98,1.21-4.78,1.21-3.36-.4-4.73-1.21ZM490.45,173.21c.71-.5,1.26-1.2,1.65-2.1s.59-1.95.59-3.13v-2.21c0-1.96-.42-3.48-1.27-4.57s-2.02-1.63-3.53-1.63c-1.41,0-2.51.57-3.32,1.7s-1.22,2.72-1.25,4.75v1.97c0,1.18.2,2.23.59,3.13s.94,1.6,1.64,2.1,1.52.75,2.44.75,1.74-.25,2.45-.75Z"/><path class="cls-2" d="M502.28,177.51c-.57-.07-1.2-.18-1.91-.33l.05-3.39c.8.13,1.65.19,2.57.19s1.54-.25,1.97-.74.65-1.25.65-2.29v-11.09h-3.87v-3.5h8.31v14.94c0,2.02-.52,3.57-1.56,4.67s-2.51,1.64-4.41,1.64c-.63,0-1.23-.04-1.8-.11Z"/><path class="cls-2" d="M514.33,176.72l.7-3.29c1.82.45,3.42.67,4.82.67,1.8-.02,3.16-.45,4.05-1.29s1.34-2.07,1.34-3.68v-9.26h-10.12v-3.5h14.59v11.92c0,3.14-.82,5.48-2.47,7s-3.94,2.29-6.88,2.29c-1.79,0-3.8-.29-6.03-.86Z"/><path class="cls-2" d="M535.7,177.51c-.57-.07-1.2-.18-1.91-.33l.05-3.39c.8.13,1.65.19,2.57.19s1.54-.25,1.97-.74.65-1.25.65-2.29v-11.09h-3.87v-3.5h8.31v14.94c0,2.02-.52,3.57-1.56,4.67s-2.51,1.64-4.41,1.64c-.63,0-1.23-.04-1.8-.11Z"/><circle class="cls-2" cx="493.81" cy="91.03" r="45"/><path class="cls-1" d="M493.81,134.03c-23.71,0-43-19.29-43-43s19.29-43,43-43,43,19.29,43,43-19.29,43-43,43Z"/><polygon class="cls-2" points="481.68 109.39 490.21 109.39 490.21 112.32 478.75 112.32 478.75 98.34 481.68 98.34 481.68 109.39"/><polygon class="cls-2" points="481.68 83.72 478.75 83.72 478.75 69.75 490.21 69.75 490.21 72.67 481.68 72.67 481.68 83.72"/><polygon class="cls-2" points="514.23 112.32 493.16 115.27 493.16 112.32 493.16 109.39 493.16 72.67 493.16 69.75 493.16 66.8 514.23 69.75 514.23 112.32"/><path class="cls-2" d="M466.42,90.78l8.78-8.78c.29.12.31.13.6.25v4.43h14.41v8.71h-14.41v4.43c-.29.12-.31.13-.6.25l-8.78-8.78v-.5Z"/><path class="cls-2" d="M492.33,25.96V6.84l-5.96,1.76v-4.38l10.9-3.87h.54v25.61h-5.48Z"/><path class="cls-2" d="M0,156.36h17.3v20.9H0v-20.9ZM12.83,173.75v-13.89H4.46v13.89h8.37Z"/><path class="cls-2" d="M24.79,159.86h-3.53v-3.5h8v11.79h-4.46v-8.3Z"/><path class="cls-2" d="M49.8,159.19l-7.26,18.07h-4.75l7.19-17.4h-11.71v-9.6h4.46v6.1h12.06v2.83Z"/><path class="cls-2" d="M69.77,156.36v12.23c0,1.96-.41,3.62-1.22,4.98s-1.96,2.4-3.43,3.1-3.18,1.05-5.12,1.05c-2.59,0-5.22-.5-7.89-1.49l.98-3.29c1.91.73,3.63,1.17,5.17,1.34-.42-.42-.79-.91-1.11-1.46s-.54-1.14-.69-1.78l-3.34-14.7h4.48l3.22,15.06c.23,1.08.53,1.95.9,2.62,1.15-.36,2.04-.99,2.66-1.87s.94-2.01.94-3.38v-12.43h4.45Z"/><path class="cls-2" d="M76.45,159.86h-2.11v-3.5h6.57v20.9h-4.46v-17.4Z"/><path class="cls-2" d="M90.91,177.34c-1.33-.22-2.57-.52-3.72-.92l.83-3.29c1.09.32,2.19.56,3.3.72s2.08.25,2.93.25c1.79-.02,3.16-.45,4.1-1.29s1.42-2.07,1.42-3.68v-9.26h-7.22c-.3.66-.54,1.39-.71,2.21s-.25,1.63-.25,2.45v1.3c.49.15,1.24.23,2.25.23v3.32c-.48.05-1,.07-1.55.07-1.02,0-1.94-.1-2.75-.3s-1.57-.5-2.28-.91l-.04-2.32c0-1.16.13-2.28.4-3.36s.63-1.97,1.1-2.69h-2.37v-3.5h17.89v12.04c0,2.07-.41,3.8-1.24,5.19s-1.96,2.41-3.4,3.08-3.1,1-4.97,1c-1.14,0-2.37-.11-3.7-.33Z"/><circle class="cls-2" cx="52.11" cy="91.03" r="45"/><path class="cls-1" d="M52.11,134.03c-23.71,0-43-19.29-43-43s19.29-43,43-43,43,19.29,43,43-19.29,43-43,43Z"/><path class="cls-1" d="M56.08,111.82c-.25,0-.48-.12-.63-.32l-17.36-23.16c-.19-.26-.21-.6-.05-.88l3.16-5.26c.14-.23.38-.37.64-.38.01,0,.03,0,.04,0,.25,0,.48.12.63.32l11.84,15.94,12.74-27.38c.13-.28.41-.46.72-.46h7.74c.27,0,.53.14.67.37.14.23.16.52.04.76l-19.47,40c-.12.25-.36.41-.64.44-.02,0-.05,0-.07,0Z"/><polygon class="cls-2" points="38.73 87.88 56.08 111.03 75.55 71.03 67.82 71.03 54.51 99.61 41.88 82.61 38.73 87.88"/><polygon class="cls-2" points="45.89 111.51 30.16 111.51 30.16 72.05 57.09 72.05 57.09 73.65 31.76 73.65 31.76 109.91 45.89 109.91 45.89 111.51"/><path class="cls-2" d="M59.79,15.08c.73,1.02,1.1,2.25,1.1,3.69,0,1.56-.4,2.91-1.21,4.04s-1.92,2-3.32,2.6-2.99.9-4.76.9c-1.52,0-2.96-.27-4.31-.82s-2.45-1.37-3.3-2.49-1.27-2.49-1.27-4.13h5.5c0,.56.16,1.07.47,1.53s.74.82,1.27,1.08,1.14.4,1.79.4c.75,0,1.4-.14,1.95-.41s.97-.66,1.27-1.14.44-1.04.44-1.66c0-1.27-.34-2.19-1.01-2.77s-1.65-.87-2.93-.87h-2.79v-4.27h2.79c1.17,0,2.05-.3,2.65-.89s.89-1.41.89-2.45c0-.88-.28-1.6-.83-2.15s-1.36-.83-2.42-.83c-.56,0-1.09.1-1.57.31s-.88.5-1.18.89-.45.83-.45,1.34h-5.47c0-1.39.38-2.62,1.14-3.67s1.79-1.87,3.09-2.43,2.72-.85,4.27-.85c1.77,0,3.33.28,4.67.84s2.38,1.39,3.12,2.49,1.11,2.42,1.11,3.98c0,1.15-.34,2.21-1.03,3.19s-1.63,1.75-2.84,2.31c1.38.49,2.44,1.25,3.17,2.27Z"/><circle class="cls-2" cx="275.81" cy="91.03" r="45"/><path class="cls-1" d="M275.81,134.03c-23.71,0-43-19.29-43-43s19.29-43,43-43,43,19.29,43,43-19.29,43-43,43Z"/><path class="cls-1" d="M267.14,121.17c-.27,0-.54-.07-.79-.21-.69-.39-.99-1.23-.7-1.98l9.02-23.04h-15.29c-.63,0-1.21-.38-1.46-.96-.26-.58-.14-1.26.29-1.73l29.21-31.85c.31-.34.74-.52,1.18-.52.32,0,.65.1.93.3.66.47.86,1.35.48,2.06l-12.46,23.23h13.84c.61,0,1.17.35,1.44.89.27.55.2,1.2-.17,1.68l-24.23,31.48c-.31.41-.79.62-1.27.62Z"/><polygon class="cls-2" points="267.14 119.57 291.38 88.08 274.86 88.08 288.59 62.5 259.38 94.34 277.02 94.34 267.14 119.57"/><path class="cls-2" d="M226.64,156.36h17.3v20.9h-17.3v-20.9ZM239.48,173.75v-13.89h-8.37v13.89h8.37Z"/><path class="cls-2" d="M251.43,159.86h-3.53v-3.5h8v11.79h-4.46v-8.3Z"/><path class="cls-2" d="M277.23,173.9v3.36h-17.61v-3.52h10.69v-9.81c0-1.41-.34-2.44-1.01-3.09s-1.73-.98-3.17-.98h-5.36v-3.5h5.64c2.7,0,4.76.67,6.2,2s2.15,3.25,2.15,5.76v9.47l2.48.32Z"/><path class="cls-2" d="M282.4,159.86h-3.53v-3.5h8v11.79h-4.46v-8.3Z"/><path class="cls-2" d="M289.89,177.37v-4.04c.4.07.86.11,1.37.11,1.48-.04,2.69-.44,3.65-1.2s1.63-1.81,2.01-3.14v-9.23h-4.66v-3.5h9.04v10.67c0,1.1.11,2.2.33,3.29l1.44,6.94h-4.15l-1.23-5.54h-.11c-.16,1.04-.55,2-1.17,2.87s-1.39,1.57-2.34,2.08-1.97.77-3.08.77c-.45,0-.81-.03-1.11-.09Z"/><path class="cls-2" d="M308.89,164.78c.12-.95.37-1.85.76-2.7s.85-1.51,1.38-2c.08-.08.18-.16.3-.23l-.04-.07c-.48.08-1.08.22-1.79.41s-1.34.39-1.88.59l-.98-3.27c1.36-.49,2.92-.89,4.68-1.19s3.4-.45,4.92-.45c3.01,0,5.31.78,6.88,2.35s2.37,3.86,2.38,6.9v12.13h-8.89v-3.5h4.43v-9.19c0-1.62-.35-2.86-1.04-3.72s-1.68-1.29-2.97-1.29c-1.05,0-1.91.41-2.57,1.23s-1.07,1.97-1.23,3.46l-1.39,13.01h-4.41l1.46-12.48Z"/><path class="cls-2" d="M267.1,25.96v-3.74l8.26-8.7c1.14-1.25,1.95-2.33,2.44-3.22s.74-1.69.74-2.41c0-1.11-.26-1.97-.79-2.57s-1.29-.9-2.29-.9c-.69,0-1.29.18-1.81.53s-.91.84-1.18,1.47-.4,1.33-.4,2.12h-5.5c0-1.56.38-2.99,1.12-4.3s1.81-2.34,3.18-3.1,2.94-1.14,4.71-1.14,3.36.29,4.62.87,2.22,1.42,2.87,2.52.97,2.43.97,3.97c0,1.14-.23,2.23-.69,3.28s-1.1,2.09-1.92,3.14-1.91,2.26-3.26,3.66l-3.96,4.1h10.56v4.43h-17.68Z"/></g></svg>